<?xml version="1.0" encoding="UTF-8" standalone="no"?>
<svg width="512px" height="512px" viewBox="0 0 512 512" version="1.1" xmlns="http://www.w3.org/2000/svg" xmlns:xlink="http://www.w3.org/1999/xlink">
    <!-- Generator: Sketch 3.8.1 (29687) - http://www.bohemiancoding.com/sketch -->
    <title>Artboard 1vector</title>
    <desc>Created with Sketch.</desc>
    <defs>
        <path d="M69.752276,407.378518 C36.1460306,366.08158 16,313.393469 16,256 C16,123.45166 123.45166,16 256,16 C388.54834,16 496,123.45166 496,256 C496,388.54834 388.54834,496 256,496 C207.894821,496 163.09525,481.847009 125.538079,457.477821 C85.5272098,475.69707 55.0012112,483.435852 55.0012112,483.435852 C33.461437,490.374839 25.8785429,480.526338 37.6194514,461.167696 C37.6194514,461.167696 50.6330477,442.0514 69.752276,407.378518 Z" id="path-1"></path>
        <mask id="mask-2" maskContentUnits="userSpaceOnUse" maskUnits="objectBoundingBox" x="0" y="0" width="480" height="480" fill="white">
            <use xlink:href="#path-1"></use>
        </mask>
    </defs>
    <g id="Page-1" stroke="none" stroke-width="1" fill="none" fill-rule="evenodd">
        <g id="Artboard-1">
            <use id="Combined-Shape" stroke="#000000" mask="url(#mask-2)" stroke-width="64" fill="#FFFFFF" xlink:href="#path-1"></use>
            <g id="Face" transform="translate(184.000000, 146.000000)" fill="#000000">
                <rect id="Rectangle-1" x="0" y="0" width="32" height="108" rx="16"></rect>
                <rect id="Rectangle-1" x="112" y="0" width="32" height="108" rx="16"></rect>
                <rect id="Rectangle-1" transform="translate(72.000000, 166.000000) rotate(-45.000000) translate(-72.000000, -166.000000) " x="56" y="112" width="32" height="108" rx="16"></rect>
                <rect id="Rectangle-1" transform="translate(72.000000, 166.000000) rotate(-135.000000) translate(-72.000000, -166.000000) " x="56" y="112" width="32" height="108" rx="16"></rect>
            </g>
        </g>
    </g>
</svg>